<?xml version="1.0" encoding="UTF-8"?>
<svg width="700pt" height="700pt" version="1.1" viewBox="0 0 700 700" xmlns="http://www.w3.org/2000/svg">
 <g>
  <path d="m568.57 396.02c-4.8438-4.8047-12.656-4.8047-17.5 0l-12.25 12.25-12.25-12.25c-4.9375-4.1172-12.199-3.7891-16.742 0.75781-4.5469 4.5469-4.875 11.809-0.75781 16.742l12.25 12.25-12.25 12.25c-2.6797 2.2383-4.2969 5.4961-4.4531 8.9844-0.16016 3.4844 1.1562 6.8789 3.625 9.3438 2.4688 2.4688 5.8594 3.7852 9.3477 3.6289 3.4883-0.16016 6.7461-1.7734 8.9805-4.457l12.25-12.25 12.25 12.25c2.2344 2.6836 5.4961 4.2969 8.9805 4.457 3.4883 0.15625 6.8789-1.1602 9.3477-3.6289 2.4688-2.4648 3.7852-5.8594 3.6289-9.3438-0.16016-3.4883-1.7773-6.7461-4.457-8.9844l-12.25-12.25 12.25-12.25c4.8047-4.8438 4.8047-12.656 0-17.5z"/>
  <path d="m571.55 361.9v-229.77c0.003907-9.0742-3.5156-17.797-9.8164-24.324-6.3008-6.5312-14.891-10.359-23.961-10.676h-400.75c-9.0664 0.31641-17.656 4.1445-23.961 10.676-6.3008 6.5273-9.8164 15.25-9.8125 24.324v295.75c-0.003906 9.0742 3.5117 17.797 9.8125 24.324 6.3047 6.5312 14.895 10.359 23.961 10.676h338.28c11.781 19.328 31.898 32.055 54.41 34.422 22.512 2.3711 44.836-5.8906 60.383-22.344 15.547-16.449 22.535-39.207 18.898-61.547-3.6367-22.344-17.48-41.711-37.441-52.383zm-434.53 84.352c-4.4258-0.3125-8.5664-2.2891-11.59-5.5391-3.0195-3.25-4.6953-7.5234-4.6836-11.961v-296.62c-0.011719-4.4375 1.6641-8.7109 4.6836-11.961 3.0234-3.25 7.1641-5.2266 11.59-5.5391h400.75c4.4258 0.3125 8.5703 2.2891 11.59 5.5391 3.0234 3.25 4.6992 7.5234 4.6875 11.961v223.3c-5.7148-1.4688-11.602-2.1758-17.5-2.1016-11.781-0.042969-23.387 2.8438-33.777 8.4023l-88.551-155.93h0.003906c-0.34766-0.59375-0.98047-0.95703-1.6641-0.95703s-1.3164 0.36328-1.6641 0.95703l-113.4 173.77c-0.35938 0.51562-0.94922 0.82031-1.5742 0.82031-0.62891 0-1.2148-0.30469-1.5742-0.82031l-60.375-77.348c-0.36328-0.51562-0.94922-0.82031-1.5781-0.82031-0.625 0-1.2148 0.30469-1.5742 0.82031l-92.223 120.57c-0.48828 0.58594-0.58203 1.4062-0.23828 2.0859 0.33984 0.68359 1.0508 1.1016 1.8125 1.0625h324.45c0.007812 6.875 1.0078 13.715 2.9766 20.301zm400.23 35c-15.18 0.085938-29.68-6.2734-39.898-17.5-4.875-5.0547-8.7383-10.992-11.375-17.5-2.5352-6.4688-3.8438-13.352-3.8516-20.301 0-10.082 2.7773-19.973 8.0234-28.586 5.25-8.6133 12.766-15.613 21.727-20.238 9.4258-4.9219 20.078-7.0117 30.664-6.0195 10.59 0.99219 20.664 5.0273 29.012 11.621 12.07 9.6289 19.566 23.867 20.668 39.273 1.1055 15.402-4.2812 30.562-14.855 41.816-10.574 11.258-25.371 17.578-40.812 17.434z"/>
  <path d="m231.88 200.2c0 20.199-16.375 36.574-36.574 36.574s-36.574-16.375-36.574-36.574 16.375-36.574 36.574-36.574 36.574 16.375 36.574 36.574"/>
 </g>
</svg>
